<svg xmlns="http://www.w3.org/2000/svg" width="80" height="80" fill="none" viewBox="0 0 80 80">
    <path fill="#fff" fill-rule="evenodd" d="M27.23 57.099h26.16v-5.881c0-1.128-.913-2.044-2.044-2.044H29.274c-1.128 0-2.044.913-2.044 2.044v5.88zm32.342 7.934H21.043V59.59c0-1.37 1.11-2.481 2.48-2.481h33.568c1.37 0 2.48 1.11 2.48 2.48v5.444zm6.266 7.932H14.78v-5.072c0-1.578 1.278-2.856 2.857-2.856h45.343c1.578 0 2.857 1.278 2.857 2.856v5.072z" clip-rule="evenodd"/>
    <path fill="#333" d="M62.983 64.015H60.6V59.59c0-1.934-1.572-3.506-3.506-3.506h-2.68V51.22c0-1.691-1.377-3.069-3.068-3.069H29.275c-1.691 0-3.068 1.377-3.068 3.069v4.863h-2.68c-1.934 0-3.506 1.572-3.506 3.506v4.425H17.64c-2.14 0-3.882 1.743-3.882 3.882v6.096h53.106v-6.096c0-2.143-1.742-3.882-3.882-3.882zm-34.73-12.797c0-.564.458-1.019 1.019-1.019h22.072c.563 0 1.018.458 1.018 1.019v4.855H28.253v-4.855zm-6.185 8.372c0-.803.653-1.456 1.456-1.456h33.567c.803 0 1.456.653 1.456 1.456v4.418H22.068V59.59zm42.746 12.35h-49.01v-4.046c0-1.012.82-1.832 1.832-1.832H62.98c1.011 0 1.832.82 1.832 1.832v4.045h.003z"/>
    <path fill="#333" d="M68.215 74H12.52c-.567 0-1.025-.458-1.025-1.025s.458-1.025 1.025-1.025h55.694c.567 0 1.025.458 1.025 1.025S68.782 74 68.215 74z"/>
    <path fill="#FFA526" d="M48.559 40.723v-6.745c0-1.227-1.039-2.228-2.313-2.228H33.452c-1.251 0-2.228.977-2.228 2.228v6.745c-1.24.028-2.204.944-2.204 2.105 0 1.183.994 2.109 2.262 2.109h17.222c1.268 0 2.263-.926 2.263-2.109-.004-1.124-1.005-2.074-2.208-2.105z"/>
    <path fill="#fff" d="M38.618 31.432c-.793 0-1.435-.642-1.435-1.435v-3.52c-6.92-2.047-7.514-11.355-7.44-15.377 0-1.172.961-2.105 2.191-2.105h15.914c1.118 0 2.057.864 2.184 2.013.003.03.007.061.007.092.078 4.022-.516 13.33-7.44 15.377v3.52c0 .793-.642 1.435-1.435 1.435h-2.546z"/>
    <path fill="#333" d="M55.81 15.422c-.596-1.144-1.6-1.988-2.83-2.378l-1.917-.608c.006-.444.006-.895 0-1.357-.004-.061-.007-.123-.014-.184-.185-1.668-1.562-2.925-3.202-2.925H31.933c-1.794 0-3.198 1.37-3.212 3.126-.01.479-.007.95 0 1.415l-1.681.533c-1.23.39-2.235 1.234-2.83 2.378-.59 1.145-.704 2.454-.314 3.684l.786 2.484c.653 2.058 2.56 3.373 4.61 3.373.481 0 .97-.075 1.455-.225l1.44-.458c1.09 1.336 2.418 2.327 3.973 2.928v2.789c0 .253.038.499.11.728h-2.82c-1.824 0-3.253 1.431-3.253 3.253v5.659c-1.281.427-2.204 1.589-2.204 2.956 0 1.729 1.473 3.133 3.288 3.133h17.222c1.811 0 3.284-1.404 3.284-3.133 0-1.34-.936-2.512-2.204-2.95v-5.665c0-1.794-1.497-3.253-3.339-3.253h-2.73c.072-.23.11-.475.11-.728v-2.789c1.575-.611 2.921-1.623 4.018-2.99l1.633.52c.482.154.97.225 1.456.225 2.047 0 3.954-1.315 4.606-3.373l.786-2.484c.394-1.23.28-2.539-.314-3.684zm-25.685 7.361c-1.459.465-3.024-.352-3.488-1.811l-.786-2.484c-.226-.708-.161-1.463.18-2.119.342-.66.92-1.148 1.627-1.37l1.176-.373c.27 3.137 1.005 5.792 2.16 7.88l-.869.277zm16.12 9.992c.772 0 1.288.601 1.288 1.203v5.481h-.007v2.064h1.145c.58.079 1.066.547 1.066 1.07 0 .574-.506 1.083-1.234 1.083H31.28c-.656 0-1.236-.448-1.236-1.083 0-.523.427-.991 1.052-1.07h1.162v-2.064h-.01v-5.481c0-.687.516-1.203 1.202-1.203h12.794zm-4.672-7.1v4.322c0 .229-.184.41-.41.41h-2.542c-.23 0-.41-.181-.41-.41v-4.323c-7.183-1.425-7.505-11.191-7.44-14.554 0-.646.516-1.1 1.162-1.1h15.914c.646 0 1.1.516 1.165 1.1.065 3.363-.26 13.13-7.439 14.554zm12.596-7.187l-.786 2.484c-.461 1.46-2.03 2.272-3.489 1.811l-1.073-.342c1.145-2.094 1.873-4.75 2.136-7.89L52.36 15c.708.222 1.285.71 1.627 1.37.342.656.406 1.411.18 2.119z"/>
    <path fill="#333" d="M44.323 16.994l-1.647 1.716.325 2.354c.037.25-.069.5-.277.646-.202.15-.472.174-.697.062l-2.14-1.036-2.139 1.036c-.092.044-.194.068-.297.071-.144 0-.284-.047-.4-.13-.205-.15-.31-.4-.273-.652l.325-2.355-1.648-1.712c-.26-.273-.252-.703.02-.967.097-.092.22-.157.353-.18l2.34-.418 1.121-2.094c.178-.332.592-.458.923-.28.12.064.215.16.28.28l1.121 2.094 2.337.417c.373.065.62.42.554.793-.024.133-.085.256-.181.355zM12.746 34.381c-.348 0-.687-.178-.882-.499-.29-.485-.133-1.114.352-1.408l5.102-3.061c.486-.291 1.114-.134 1.408.352.294.485.134 1.113-.352 1.407l-5.102 3.062c-.164.1-.345.147-.526.147zM17.682 9.514c-.137 0-.277-.027-.41-.085L11.63 6.965c-.516-.226-.755-.83-.53-1.35.226-.52.831-.755 1.35-.53l5.642 2.464c.52.226.755.83.53 1.35-.168.383-.544.615-.94.615zM14.039 20.162H6.025c-.567 0-1.025-.458-1.025-1.025s.458-1.025 1.025-1.025h8.014c.567 0 1.025.458 1.025 1.025s-.458 1.025-1.025 1.025zM67.993 34.381c-.181 0-.362-.048-.526-.147l-5.102-3.062c-.485-.29-.643-.919-.352-1.407.29-.486.923-.643 1.408-.352l5.102 3.061c.485.29.642.92.352 1.408-.195.321-.533.5-.882.5zM63.056 9.514c-.396 0-.772-.229-.94-.615-.225-.52.011-1.124.53-1.35l5.642-2.464c.52-.225 1.124.01 1.35.53.225.52-.01 1.124-.53 1.35l-5.642 2.464c-.133.058-.273.085-.41.085zM74.714 20.162h-8.013c-.567 0-1.025-.458-1.025-1.025s.458-1.025 1.025-1.025h8.013c.567 0 1.025.458 1.025 1.025s-.458 1.025-1.025 1.025z"/>
</svg>