<svg xmlns="http://www.w3.org/2000/svg" width="80" height="80" fill="none" viewBox="0 0 80 80">
    <path fill="#fff" d="M39.575 26.619c4.015 0 7.27-3.264 7.27-7.29 0-4.027-3.255-7.29-7.27-7.29s-7.27 3.263-7.27 7.29c0 4.026 3.255 7.29 7.27 7.29z"/>
    <path fill="#333" d="M39.624 23.706c.903 0 1.635-.734 1.635-1.64h-3.27c0 .906.731 1.64 1.635 1.64z"/>
    <path fill="#333" d="M39.574 27.59c-4.544 0-8.242-3.709-8.242-8.265 0-4.556 3.698-8.264 8.242-8.264 4.544 0 8.242 3.708 8.242 8.264 0 4.556-3.698 8.265-8.242 8.265zm0-14.578c-3.472 0-6.299 2.832-6.299 6.316 0 3.485 2.827 6.317 6.299 6.317 3.472 0 6.299-2.832 6.299-6.317 0-3.484-2.827-6.316-6.299-6.316z"/>
    <path fill="#fff" d="M49.534 50.727V35.07c12.109-5.076 16.397-16.806 16.59-17.348.642-1.812-.3-3.803-2.107-4.446-1.807-.646-3.793.302-4.434 2.114-.035.101-3.374 9.24-12.591 13.195 0 0-2.668 1.373-7.06 1.373-4.87 0-7.533-1.338-7.533-1.338-3.507-1.48-6.57-3.877-9.129-7.16-2.461-3.157-3.52-5.998-3.552-6.08-.648-1.805-2.627-2.747-4.43-2.104-1.808.643-2.754 2.634-2.109 4.446.188.542 4.479 12.278 16.594 17.35v15.656"/>
    <path fill="#333" d="M50.506 50.727h-1.943V34.42l.596-.25c11.733-4.917 15.878-16.292 16.05-16.773.223-.63.188-1.312-.097-1.916-.289-.604-.79-1.062-1.422-1.286-.628-.224-1.308-.188-1.91.098-.603.289-1.06.795-1.283 1.425-.033.095-3.504 9.622-13.097 13.75-.356.175-3.112 1.464-7.468 1.464-4.809 0-7.584-1.256-7.934-1.422-3.656-1.549-6.85-4.056-9.498-7.45-2.552-3.273-3.65-6.218-3.695-6.342-.467-1.305-1.898-1.984-3.194-1.523-.628.224-1.133.682-1.421 1.286-.288.604-.32 1.286-.097 1.916.171.484 4.316 11.863 16.06 16.78l.595.25v16.301h-1.943V35.715C16.732 30.34 12.438 18.555 12.26 18.049c-.399-1.12-.337-2.332.174-3.406.509-1.075 1.406-1.887 2.527-2.287 2.302-.818 4.844.39 5.67 2.692.006.02 1.036 2.777 3.404 5.81 2.445 3.137 5.385 5.446 8.74 6.862l.059.026c.022.01 2.558 1.234 7.098 1.234 4.074 0 6.594-1.254 6.62-1.267l.058-.026c8.764-3.76 12.025-12.538 12.057-12.626.395-1.12 1.205-2.016 2.277-2.53 1.072-.512 2.28-.574 3.397-.175 1.117.4 2.014 1.212 2.526 2.287.508 1.074.573 2.286.175 3.406-.178.507-4.473 12.285-16.533 17.66v15.018h-.003z"/>
    <path fill="#696969" d="M31.712 10.755c-.084 0-.165-.032-.23-.097L28.286 7.42c-.127-.126-.127-.334.003-.46.126-.128.333-.128.457.002l3.196 3.238c.126.127.126.335-.003.461-.062.065-.146.094-.227.094zM47.573 10.755c-.08 0-.165-.032-.227-.094-.126-.127-.13-.331-.003-.461l3.196-3.238c.127-.126.33-.126.457-.003.126.127.13.331.003.461l-3.196 3.238c-.061.065-.146.097-.23.097zM39.437 7.622c-.178 0-.324-.147-.324-.325V.325c0-.179.146-.325.324-.325.178 0 .324.146.324.325v6.972c0 .178-.146.325-.324.325z"/>
    <path fill="#6864D5" d="M49.614 60.862l1.703 10.243c.127.65-.13 1.315-.663 1.708-.292.211-.645.325-1.004.325-.279.003-.554-.062-.8-.189l-9.162-4.864-9.21 4.864c-.833.439-1.862.114-2.3-.72-.171-.329-.233-.705-.171-1.072l1.703-10.243-7.406-7.342c-.447-.445-.609-1.104-.424-1.708.2-.62.735-1.068 1.38-1.163l10.3-1.536 4.6-9.372c.41-.847 1.428-1.204 2.273-.792.343.169.622.448.79.792l4.599 9.372 10.214 1.504c.93.136 1.574 1.003 1.441 1.935-.052.367-.223.708-.486.968l-7.377 7.29z"/>
    <path fill="#333" d="M29.692 74.122c-.27 0-.538-.043-.8-.124-.68-.214-1.24-.682-1.57-1.315-.27-.513-.364-1.11-.27-1.682l1.62-9.746-7.047-6.985c-.706-.704-.962-1.734-.67-2.685.32-.981 1.168-1.699 2.172-1.842l9.79-1.46 4.372-8.915c.641-1.325 2.244-1.883 3.569-1.24.538.263.981.704 1.24 1.243l4.369 8.908 9.709 1.429c.706.104 1.331.474 1.758 1.049.428.574.606 1.28.502 1.99-.084.572-.353 1.11-.764 1.52l-7.014 6.936 1.619 9.746c.194.987-.214 2.043-1.05 2.653-.462.338-1.007.513-1.573.513h-.046c-.408 0-.829-.1-1.204-.295l-8.715-4.631-8.757 4.624c-.392.205-.813.309-1.24.309zm10-34.316c-.272 0-.534.153-.66.413l-4.826 9.836-10.804 1.61c-.281.04-.511.238-.599.501-.074.244-.003.523.188.714l7.763 7.694-1.785 10.742c-.025.156 0 .318.075.461.09.172.243.302.43.36.185.059.386.04.558-.048l9.663-5.105 9.609 5.108c.094.049.214.075.334.075h.003c.171 0 .32-.05.447-.14.223-.166.336-.451.281-.73l-1.79-10.772 7.73-7.645c.11-.11.184-.256.207-.412.03-.195-.02-.386-.14-.542-.116-.156-.287-.26-.478-.286l-10.723-1.578-4.822-9.833c-.075-.153-.195-.273-.343-.345-.104-.055-.214-.078-.318-.078z"/>
    <path fill="#333" d="M29.692 73.472c-.204 0-.408-.032-.61-.094-.514-.162-.938-.516-1.188-.997-.204-.39-.275-.841-.204-1.276l1.675-10.077-7.287-7.222c-.534-.533-.729-1.312-.508-2.033.24-.737.884-1.28 1.642-1.387l10.13-1.51 4.52-9.219c.237-.487.648-.854 1.16-1.033.511-.178 1.062-.146 1.548.091.408.198.741.533.939.945l4.52 9.22 10.047 1.477c.534.078 1.007.36 1.33.796.325.435.46.97.383 1.507-.062.435-.269.84-.58 1.15l-7.254 7.173 1.674 10.076c.15.76-.162 1.559-.793 2.023-.353.257-.755.384-1.198.387-.328 0-.655-.075-.946-.224l-9.003-4.793-9.061 4.786c-.295.156-.616.234-.936.234zm10-34.315c-.511 0-1.004.286-1.243.78l-4.673 9.527-10.47 1.562c-.519.075-.96.442-1.121.942-.149.484-.016 1.013.347 1.377l7.526 7.46-1.73 10.41c-.048.296 0 .604.14.867.171.328.46.569.81.679.352.11.725.078 1.052-.094l9.362-4.946 9.31 4.946c.198.1.419.152.645.15h.007c.298 0 .576-.092.813-.264.427-.315.638-.857.537-1.38l-1.732-10.42 7.49-7.408c.21-.211.35-.487.395-.783.052-.367-.038-.73-.259-1.026-.22-.296-.54-.487-.907-.542l-10.385-1.527-4.674-9.524c-.136-.28-.362-.51-.64-.643-.195-.098-.399-.143-.6-.143zM32.507 21.283s9.534.422 10.778-7.475c0 0-2.717-1.614-5.92-.812-3.2.802-5.503 4.377-4.858 8.287zM39.696 32.808c-.382 0-.712.208-.89.517l-1.953-1.13c-.376-.218-.845.055-.845.49V35c0 .435.47.708.845.49l1.953-1.13c.178.31.508.517.89.517.383 0 .713-.208.891-.516l1.953 1.13c.376.217.845-.056.845-.49v-2.316c0-.435-.47-.708-.845-.49l-1.953 1.13c-.178-.309-.508-.517-.89-.517z"/>
</svg>
