<svg xmlns="http://www.w3.org/2000/svg" width="81" height="80" fill="none" viewBox="0 0 81 80">
    <path fill="#48D1EE" d="M77.147 48.443H44.394c-1.077 0-1.93-.937-1.813-2.017.998-9.216 8.76-16.387 18.19-16.387 9.429 0 17.19 7.17 18.192 16.387.114 1.08-.74 2.017-1.816 2.017z"/>
    <path fill="#333" d="M77.145 49.485H44.393c-.812 0-1.589-.347-2.134-.959-.539-.604-.798-1.41-.711-2.215 1.07-9.868 9.332-17.313 19.218-17.313 9.888 0 18.15 7.445 19.22 17.313.087.802-.172 1.611-.71 2.215-.542.608-1.32.959-2.13.959zM60.765 31.08c-8.828 0-16.203 6.646-17.16 15.456-.03.295.107.5.194.597.09.1.283.264.59.264h32.753c.307 0 .5-.167.59-.264.087-.097.225-.302.194-.597-.953-8.81-8.332-15.456-17.16-15.456z"/>
    <path fill="#333" d="M60.768 33.675c-.448 0-.839.247-1.05.611l-2.685-1.559c-.273-.16-.615.038-.615.354v3.629c0 .316.342.514.615.354l2.686-1.559c.21.365.6.611 1.05.611.448 0 .838-.246 1.05-.611l2.685 1.56c.273.159.615-.04.615-.355v-3.625c0-.316-.342-.514-.615-.355l-2.686 1.56c-.21-.368-.6-.615-1.05-.615z"/>
    <path fill="#fff" d="M60.78 29.473c5.885 0 10.655-4.797 10.655-10.715 0-5.919-4.77-10.716-10.655-10.716s-10.655 4.797-10.655 10.716c0 5.918 4.77 10.715 10.655 10.715z"/>
    <path fill="#333" d="M60.78 7c-6.445 0-11.69 5.275-11.69 11.758 0 6.483 5.245 11.757 11.69 11.757 6.447 0 11.692-5.274 11.692-11.757S67.227 7 60.78 7zm0 21.435c-4.971 0-9.073-3.813-9.57-8.684 2.852.09 12.222-.268 15.748-8.404 2.103 1.778 3.442 4.438 3.442 7.41 0 5.338-4.316 9.678-9.62 9.678z"/>
    <path fill="#333" d="M65.87 20.494c.656 0 1.188.535 1.188 1.194 0 .66-.532 1.195-1.188 1.195-.656 0-1.187-.535-1.187-1.195s.531-1.194 1.187-1.194zm-10.178 0c.656 0 1.187.535 1.187 1.194 0 .66-.531 1.195-1.187 1.195s-1.188-.535-1.188-1.195.532-1.194 1.188-1.194z"/>
    <path fill="#48D1EE" d="M35.619 71.958H2.863c-1.078 0-1.93-.937-1.813-2.017.998-9.216 8.76-16.387 18.189-16.387 9.43 0 17.191 7.171 18.192 16.387.118 1.08-.735 2.017-1.812 2.017z"/>
    <path fill="#333" d="M35.617 73H2.861c-.811 0-1.588-.347-2.133-.958-.539-.605-.798-1.41-.712-2.216 1.07-9.868 9.333-17.313 19.218-17.313 9.889 0 18.151 7.445 19.222 17.313.086.802-.173 1.611-.712 2.216-.538.61-1.315.958-2.127.958zm-16.38-18.4c-8.828 0-16.203 6.646-17.16 15.455-.03.296.108.5.194.598.09.1.283.264.59.264h32.753c.307 0 .5-.167.59-.264.087-.098.225-.302.194-.598-.953-8.813-8.332-15.455-17.16-15.455z"/>
    <path fill="#333" d="M19.237 57.194c-.449 0-.839.246-1.05.61l-2.686-1.558c-.272-.16-.614.038-.614.354v3.628c0 .316.341.514.614.355l2.687-1.56c.21.365.6.612 1.05.612.448 0 .838-.247 1.049-.611l2.686 1.559c.273.16.615-.038.615-.355V56.6c0-.316-.342-.514-.615-.354l-2.686 1.559c-.207-.368-.601-.611-1.05-.611z"/>
    <path fill="#fff" d="M19.249 52.992c5.885 0 10.655-4.798 10.655-10.716 0-5.918-4.77-10.716-10.655-10.716S8.594 36.358 8.594 42.276c0 5.918 4.77 10.716 10.655 10.716z"/>
    <path fill="#333" d="M19.25 30.515c-6.447 0-11.691 5.275-11.691 11.758 0 6.483 5.244 11.757 11.69 11.757 6.447 0 11.692-5.274 11.692-11.757.003-6.483-5.242-11.758-11.691-11.758zm0 21.435c-4.972 0-9.074-3.812-9.571-8.684 2.851.09 12.222-.268 15.748-8.4 2.102 1.775 3.442 4.438 3.442 7.41.003 5.334-4.313 9.674-9.62 9.674z"/>
    <path fill="#333" d="M24.343 44.009c.656 0 1.187.535 1.187 1.194 0 .66-.531 1.195-1.188 1.195-.655 0-1.187-.535-1.187-1.195s.531-1.194 1.188-1.194zm-10.183 0c.656 0 1.188.535 1.188 1.194 0 .66-.532 1.195-1.188 1.195-.656 0-1.187-.535-1.187-1.195s.531-1.194 1.187-1.194zM43.488 14.212H18.94c-.573 0-1.036.466-1.036 1.042v9.01l-1.65-1.183c-.466-.334-1.112-.226-1.443.243-.332.469-.225 1.118.241 1.451l3.305 2.368c.18.129.39.195.6.195.211 0 .422-.066.601-.195l3.332-2.385c.466-.334.577-.983.242-1.452-.335-.468-.977-.576-1.444-.246l-1.712 1.226v-7.99h23.513c.573 0 1.036-.466 1.036-1.042 0-.576-.466-1.042-1.036-1.042zM65.759 54.812l-3.332-2.386c-.36-.257-.843-.257-1.202 0l-3.304 2.368c-.466.334-.573.983-.242 1.452.332.468.977.58 1.444.243l1.619-1.16V66.02h-17.94c-.574 0-1.036.466-1.036 1.042 0 .577.462 1.042 1.035 1.042h18.977c.573 0 1.035-.465 1.035-1.042V55.26l1.744 1.246c.183.132.394.194.6.194.326 0 .643-.152.847-.437.331-.469.22-1.118-.245-1.451z"/>
</svg>
