<svg xmlns="http://www.w3.org/2000/svg" width="80" height="80" fill="none" viewBox="0 0 80 80">
    <path fill="#fff" d="M39.898 68.659s-3.789 5.325-9.645 3.277c-5.855-2.047-4.41-10.99-4.41-10.99s-9.715-.137-10.748-4.233c-1.033-4.095-1.584-11.265 3.03-12.426 0 0-6.68-.955-6.958-8.194-.277-7.239 4.823-7.988 4.823-7.988s-1.64-9.087 7.309-11.71c0 0 1.577-7.474 6.469-8.085 4.892-.612 8.473 1.432 10.196 4.985 0 0 2.46-5.004 8.36-5.268 5.9-.264 8.864 7.521 8.864 7.521s7.51 2.87 8.27 12.29c0 0 3.72 2.933 3.72 8.125 0 5.191-3.929 8.056-4.615 8.056 0 0 2.548 4.848 2.136 9.49-.413 4.64-5.582 8.804-12.194 6.757 0 0 2.205 7.033-.894 9.558-3.1 2.525-9.167 3.136-13.712-1.165z"/>
    <mask id="jlau2lew9a" width="32" height="66" x="39" y="7" maskUnits="userSpaceOnUse">
        <path fill="#C4C4C4" d="M39 73V7h31.5v66H39z"/>
    </mask>
    <g mask="url(#jlau2lew9a)">
        <path fill="#4EBE85" d="M39.898 68.659s-3.789 5.325-9.645 3.277c-5.855-2.047-4.41-10.99-4.41-10.99s-9.715-.137-10.748-4.233c-1.033-4.095-1.584-11.265 3.03-12.426 0 0-6.68-.955-6.958-8.194-.277-7.239 4.823-7.988 4.823-7.988s-1.64-9.087 7.309-11.71c0 0 1.577-7.474 6.469-8.085 4.892-.612 8.473 1.432 10.196 4.985 0 0 2.46-5.004 8.36-5.268 5.9-.264 8.864 7.521 8.864 7.521s7.51 2.87 8.27 12.29c0 0 3.72 2.933 3.72 8.125 0 5.191-3.929 8.056-4.615 8.056 0 0 2.548 4.848 2.136 9.49-.413 4.64-5.582 8.804-12.194 6.757 0 0 2.205 7.033-.894 9.558-3.1 2.525-9.167 3.136-13.712-1.165z"/>
    </g>
    <path fill="#333" d="M65.47 45.105l-.413-.496.562-.322c2.662-1.527 4.385-4.815 4.385-8.379 0-3.335-1.494-6.428-3.896-8.07l-.23-.16-.003-.278c-.117-6.1-3.45-11.179-7.926-12.08l-.376-.075-.059-.377C56.821 10.386 52.845 7 48.256 7c-3.143 0-6.056 1.552-7.801 4.146l-.457.68-.456-.68C37.8 8.552 34.887 7 31.744 7c-4.59 0-8.569 3.386-9.255 7.872l-.058.376-.376.076c-4.476.901-7.81 5.98-7.926 12.08l-.004.278-.23.16C11.493 29.48 10 32.572 10 35.907c0 3.654 1.782 6.975 4.538 8.466l.584.314-.427.507c-2.625 3.13-2.957 7.68-.836 11.323 2.019 3.462 5.983 5.546 9.871 5.188l.778-.073-.197.75c-.186.697-.281 1.425-.281 2.155 0 4.663 3.83 8.458 8.535 8.458 2.775 0 5.385-1.342 6.984-3.592l.45-.63.448.63c1.6 2.25 4.21 3.592 6.984 3.592 4.706 0 8.536-3.794 8.536-8.458 0-.73-.095-1.454-.282-2.156l-.197-.749.778.073c3.884.354 7.853-1.726 9.872-5.188 2.183-3.744 1.912-8.331-.669-11.413zm-26.574 4.388l-.683-.174c-3.158-.807-5.363-3.629-5.363-6.863 0-.604-.497-1.092-1.103-1.092-.605 0-1.102.492-1.102 1.092 0 4.548 3.278 8.397 7.798 9.146l.456.076v12.868c0 3.458-2.836 6.269-6.326 6.269-3.49 0-6.327-2.81-6.327-6.27 0-3.458 2.836-6.269 6.327-6.269.61 0 1.102-.492 1.102-1.092 0-.6-.496-1.093-1.102-1.093-1.373 0-2.684.311-3.896.93-.588.3-1.668 1.107-2.128 1.45-.172.127-.285.207-.307.221-1.646.944-3.73 1.129-5.713.514-2.008-.626-3.695-1.964-4.75-3.773-2.066-3.545-1.143-8.006 2.103-10.155l.139-.09h.168c2.617 0 4.75 2.08 4.75 4.634 0 .604.496 1.092 1.102 1.092.606 0 1.102-.492 1.102-1.092 0-3.763-3.088-6.82-6.881-6.82-1.37 0-2.366-.282-3.235-.911-1.741-1.266-2.818-3.632-2.818-6.183 0-4.504 2.307-7.087 6.326-7.087 3.943 0 7.152 3.18 7.152 7.087 0 .605.497 1.093 1.103 1.093s1.102-.492 1.102-1.093c0-2.2-.792-4.334-2.227-6.005l-.474-.553.672-.293c1.343-.59 2.438-1.567 3.172-2.826.146-.253.186-.546.11-.828-.077-.282-.26-.517-.515-.666-.256-.144-.552-.184-.836-.108-.285.076-.522.257-.668.51-.982 1.682-2.936 2.59-4.867 2.246l-.117-.032c-1.142-.474-2.358-.716-3.61-.716H16.36l.069-.605c.54-4.713 3.326-8.346 6.622-8.642l.157-.015.14.073c2.843 1.429 5.87.995 7.034-1.002.146-.254.186-.547.11-.829-.077-.282-.26-.517-.515-.666-.256-.144-.555-.184-.836-.108-.285.076-.522.257-.672.51-.47.807-1.92.991-3.446.438l-.42-.152.07-.438c.529-3.426 3.566-6.009 7.07-6.009 3.944 0 7.153 3.18 7.153 7.087v33.214zm25.329 5.936c-1.055 1.809-2.742 3.148-4.75 3.773-1.983.615-4.067.43-5.714-.513-.058-.033-.12-.062-.182-.084l-.113-.04-.084-.082c-1.603-1.545-3.717-2.395-5.95-2.395-.61 0-1.103.492-1.103 1.092 0 .6.496 1.093 1.102 1.093 3.49 0 6.327 2.81 6.327 6.269 0 3.458-2.837 6.27-6.327 6.27-3.49 0-6.327-2.812-6.327-6.27V34.273c0-3.907 3.21-7.087 7.152-7.087.61 0 1.103-.492 1.103-1.092 0-.6-.497-1.093-1.103-1.093-2.307 0-4.523.84-6.239 2.363l-.913.81V16.276c0-3.907 3.21-7.087 7.152-7.087 3.501 0 6.542 2.583 7.072 6.008l.069.438-.42.152c-1.526.554-2.975.37-3.446-.438-.146-.253-.387-.434-.672-.51-.285-.076-.58-.036-.836.109-.526.3-.708.973-.405 1.494 1.164 2 4.187 2.431 7.035 1.002l.139-.072.157.014c3.296.297 6.082 3.933 6.622 8.643l.07.604h-2.173c-5.162 0-9.36 4.16-9.36 9.275 0 .605.496 1.093 1.102 1.093.606 0 1.103-.492 1.103-1.093 0-3.907 3.209-7.087 7.152-7.087h.825c3.033 0 5.501 3.18 5.501 7.087 0 3.907-2.468 7.087-5.501 7.087h-.544c-1.83 0-3.549.702-4.845 1.976l-.077.072-.098.04c-2.165.911-4.688.069-5.867-1.954-.146-.253-.387-.434-.672-.51-.284-.076-.58-.036-.836.109-.525.3-.708.973-.405 1.494 1.165 2 3.253 3.27 5.582 3.4l.646.036-.146.626c-.113.5-.171 1.01-.171 1.527 0 .604.496 1.093 1.102 1.093.606 0 1.103-.493 1.103-1.093 0-2.554 2.099-4.634 4.676-4.634h.522l.14.094c3.124 2.094 3.924 6.555 1.825 10.158z"/>
</svg>
