<svg width="85" height="74" viewBox="0 0 85 74" fill="none" xmlns="http://www.w3.org/2000/svg">
<circle cx="21" cy="52" r="20" fill="#EAFCFF"/>
<circle cx="64" cy="21" r="20" fill="#EAFCFF"/>
<path d="M63.8552 42.5383C52.1979 42.5383 42.7109 32.999 42.7109 21.2692C42.7109 9.53939 52.1979 0 63.8552 0C75.5124 0 84.9994 9.54306 84.9994 21.2692C84.9994 32.9953 75.516 42.5383 63.8552 42.5383ZM63.8552 2.2014C53.4016 2.2014 44.8994 10.7538 44.8994 21.2692C44.8994 31.7845 53.4016 40.337 63.8552 40.337C74.3087 40.337 82.8109 31.7845 82.8109 21.2692C82.8109 10.7538 74.3087 2.2014 63.8552 2.2014Z" fill="#333333"/>
<path d="M74.679 33.4796H53.0351C52.3238 33.4796 51.7585 32.8596 51.8351 32.1478C52.4953 26.0572 57.6236 21.3169 63.8534 21.3169C70.0869 21.3169 75.2152 26.0572 75.8754 32.1478C75.9556 32.8596 75.3939 33.4796 74.679 33.4796Z" fill="#48D1EE"/>
<path d="M74.6783 34.5803H53.0344C52.3815 34.5803 51.7578 34.3015 51.3201 33.8098C50.8861 33.3218 50.6782 32.6724 50.7475 32.0267C51.477 25.2941 57.1123 20.2162 63.8564 20.2162C70.6005 20.2162 76.2358 25.2941 76.9653 32.0267C77.0346 32.6724 76.8267 33.3255 76.3926 33.8098C75.9586 34.2978 75.3312 34.5803 74.6783 34.5803ZM63.8564 22.4139C58.232 22.4139 53.5341 26.6479 52.925 32.2615C52.925 32.2725 52.9213 32.3019 52.9505 32.3349C52.9651 32.3532 52.9943 32.3716 53.0344 32.3716H74.6783C74.7221 32.3716 74.7476 32.3496 74.7622 32.3349C74.7914 32.3019 74.7878 32.2688 74.7878 32.2615C74.1823 26.6479 69.4807 22.4139 63.8564 22.4139Z" fill="#333333"/>
<path d="M63.8635 20.9427C67.7534 20.9427 70.9067 17.7707 70.9067 13.8578C70.9067 9.945 67.7534 6.77301 63.8635 6.77301C59.9737 6.77301 56.8203 9.945 56.8203 13.8578C56.8203 17.7707 59.9737 20.9427 63.8635 20.9427Z" fill="white"/>
<path d="M63.864 22.0434C59.3777 22.0434 55.7266 18.3707 55.7266 13.8578C55.7266 9.34497 59.3777 5.6723 63.864 5.6723C68.3504 5.6723 72.0014 9.34497 72.0014 13.8578C72.0014 18.3707 68.3504 22.0434 63.864 22.0434ZM63.864 7.8737C60.585 7.8737 57.915 10.5594 57.915 13.8578C57.915 17.1563 60.585 19.842 63.864 19.842C67.1431 19.842 69.813 17.1563 69.813 13.8578C69.813 10.5594 67.1431 7.8737 63.864 7.8737Z" fill="#333333"/>
<path d="M56.8501 15.9712C56.8501 15.9712 66.348 16.9691 69.3207 9.45135C69.3207 9.45135 67.7523 6.83535 63.4556 7.33433C59.1626 7.82965 56.106 12.027 56.8501 15.9712Z" fill="#333333"/>
<path d="M21.1442 74C9.487 74 0 64.4606 0 52.7308C0 41.0011 9.487 31.4617 21.1442 31.4617C32.8014 31.4617 42.2884 41.0047 42.2884 52.7308C42.2884 64.457 32.8051 74 21.1442 74ZM21.1442 33.6631C10.6907 33.6631 2.18847 42.2155 2.18847 52.7308C2.18847 63.2462 10.6907 71.7986 21.1442 71.7986C31.5978 71.7986 40.1 63.2462 40.1 52.7308C40.1 42.2155 31.5978 33.6631 21.1442 33.6631Z" fill="#333333"/>
<path d="M36.0161 35.3251C35.6878 35.3251 35.3632 35.1783 35.148 34.8958C34.7796 34.4115 34.8708 33.7217 35.3523 33.3512L40.8563 29.1098C41.3377 28.7392 42.0234 28.831 42.3918 29.3153C42.7602 29.7996 42.669 30.4894 42.1876 30.8599L36.6836 35.1013C36.483 35.248 36.2496 35.3251 36.0161 35.3251Z" fill="#333333"/>
<path d="M43.8169 45.9909C43.4886 45.9909 43.164 45.8441 42.9488 45.5616C42.5804 45.0773 42.6716 44.3875 43.1531 44.017L48.6571 39.7719C49.1385 39.4014 49.8242 39.4931 50.1926 39.9774C50.561 40.4617 50.4698 41.1515 49.9884 41.522L44.4844 45.7671C44.2838 45.9175 44.0503 45.9909 43.8169 45.9909Z" fill="#333333"/>
<path fill-rule="evenodd" clip-rule="evenodd" d="M21.4676 36.8881H20.6798C16.653 36.8881 13.3594 40.2012 13.3594 44.2518V53.3216H28.7881V44.2518C28.7881 40.2012 25.4944 36.8881 21.4676 36.8881Z" fill="#333333"/>
<path d="M31.2751 64.7542H11.0172C10.3497 64.7542 9.82446 64.1745 9.8974 63.5067C10.5138 57.8051 15.3175 53.3693 21.1461 53.3693C26.9784 53.3693 31.7784 57.8051 32.3985 63.5067C32.4678 64.1708 31.9425 64.7542 31.2751 64.7542Z" fill="#48D1EE"/>
<path d="M31.2734 65.8549H11.0156C10.3845 65.8549 9.77907 65.5833 9.35961 65.11C8.94016 64.6404 8.73955 64.013 8.8052 63.3856C9.49092 57.0493 14.7943 52.2686 21.1409 52.2686C27.4874 52.2686 32.7944 57.0493 33.4802 63.3856C33.5495 64.013 33.3452 64.6404 32.9257 65.11C32.5099 65.5833 31.9045 65.8549 31.2734 65.8549ZM21.1445 54.47C15.9177 54.47 11.5481 58.4068 10.9827 63.6241L11.0156 63.6535H31.2734C31.2771 63.6535 31.288 63.6535 31.3026 63.6424C30.7409 58.4068 26.3713 54.47 21.1445 54.47Z" fill="#333333"/>
<path d="M21.1534 53.3583C24.7935 53.3583 27.7444 50.39 27.7444 46.7284C27.7444 43.0668 24.7935 40.0985 21.1534 40.0985C17.5134 40.0985 14.5625 43.0668 14.5625 46.7284C14.5625 50.39 17.5134 53.3583 21.1534 53.3583Z" fill="white"/>
<path d="M21.1539 54.459C16.9156 54.459 13.4688 50.9918 13.4688 46.7284C13.4688 42.465 16.9156 38.9978 21.1539 38.9978C25.3922 38.9978 28.8391 42.465 28.8391 46.7284C28.8391 50.9918 25.3922 54.459 21.1539 54.459ZM21.1539 41.1992C18.1229 41.1992 15.6572 43.6794 15.6572 46.7284C15.6572 49.7773 18.1229 52.2576 21.1539 52.2576C24.1849 52.2576 26.6506 49.7773 26.6506 46.7284C26.6506 43.6794 24.1849 41.1992 21.1539 41.1992Z" fill="#333333"/>
<path fill-rule="evenodd" clip-rule="evenodd" d="M15.1886 45.6643H17.0087L18.3218 43.2428L19.6093 45.6607H28.0641C28.0641 45.6607 25.8611 38.9134 22.4653 38.9134C19.0695 38.9134 14.9625 40.2012 15.1886 45.6643Z" fill="#333333"/>
<path d="M21.1534 49.9388C21.8136 49.9388 22.3498 49.3995 22.3498 48.7317H19.957C19.957 49.3995 20.4932 49.9388 21.1534 49.9388Z" fill="#333333"/>
<path d="M63.8647 17.7102C64.616 17.7102 65.2252 17.0975 65.2252 16.338H62.5078C62.5042 17.0975 63.1133 17.7102 63.8647 17.7102Z" fill="#333333"/>
</svg>
