<svg xmlns="http://www.w3.org/2000/svg" width="88" height="88" fill="none" viewBox="0 0 88 88">
    <path fill="#333" fill-rule="evenodd" d="M44.85 15.645H44c-4.344 0-7.898 3.574-7.898 7.937v9.78h16.643v-9.78c.003-4.367-3.551-7.937-7.895-7.937z" clip-rule="evenodd"/>
    <path fill="#333" d="M78.31 79H10.686C7.001 79 4 75.983 4 72.278V15.722C4 12.017 7 9 10.686 9H78.31c3.69 0 6.686 3.017 6.686 6.722v56.556C85 75.983 82 79 78.31 79zM10.686 11.088c-2.54 0-4.61 2.08-4.61 4.634v56.556c0 2.557 2.07 4.634 4.61 4.634H78.31c2.544 0 4.61-2.08 4.61-4.634V15.722c0-2.557-2.07-4.634-4.61-4.634H10.686z"/>
    <path fill="#65E5A9" d="M55.425 45.682H33.574c-.72 0-1.288-.626-1.212-1.346.668-6.145 5.846-10.929 12.134-10.929 6.292 0 11.469 4.78 12.137 10.929.08.72-.488 1.346-1.208 1.346z"/>
    <path fill="#fff" d="M43 40c-1.6 0-3-3-3.5-4.5 0-2 4-2.5 7-2.5s3 1 2.5 4-4 3-6 3z"/>
    <path fill="#333" d="M55.424 46.726H33.572c-.64 0-1.253-.275-1.682-.755-.425-.477-.63-1.113-.56-1.746.733-6.76 6.392-11.858 13.165-11.858 6.772 0 12.434 5.097 13.168 11.858.07.633-.135 1.27-.56 1.746-.426.48-1.039.755-1.68.755zM44.498 34.455c-5.71 0-10.483 4.297-11.102 9.996-.004.048.01.09.041.128.025.028.07.06.135.06h21.852c.066 0 .11-.035.135-.06.034-.038.048-.08.041-.128-.616-5.7-5.388-9.996-11.102-9.996z"/>
    <path fill="#fff" d="M44.507 33.397c3.926 0 7.108-3.2 7.108-7.147s-3.182-7.146-7.108-7.146c-3.926 0-7.109 3.2-7.109 7.146 0 3.947 3.183 7.147 7.109 7.147z"/>
    <path fill="#333" d="M44.506 34.444c-4.492 0-8.147-3.674-8.147-8.19s3.655-8.19 8.147-8.19c4.492 0 8.147 3.674 8.147 8.19s-3.655 8.19-8.147 8.19zm0-14.296c-3.346 0-6.07 2.738-6.07 6.102 0 3.365 2.724 6.103 6.07 6.103 3.347 0 6.07-2.738 6.07-6.103 0-3.364-2.72-6.102-6.07-6.102z"/>
    <path fill="#333" d="M48.014 25.902c.412 0 .747.338.747.752s-.335.752-.747.752-.748-.338-.748-.752.336-.752.748-.752zm-7.005 0c.412 0 .748.338.748.752s-.336.752-.748.752-.747-.338-.747-.752.335-.752.747-.752zM45.03 45.272h-2.077v32.444h2.077V45.272z"/>
    <path fill="#333" d="M84.371 44.673h-79.3v2.088h79.3v-2.088z"/>
    <path fill="#48D1EE" d="M71.899 77.953H53.165c-.616 0-1.104-.536-1.038-1.152.571-5.268 5.011-9.366 10.403-9.366s9.832 4.098 10.403 9.366c.07.616-.415 1.152-1.034 1.152z"/>
    <path fill="#333" d="M71.897 78.997H53.163c-.592 0-1.156-.254-1.55-.696-.391-.439-.582-1.027-.52-1.615.637-5.87 5.552-10.298 11.435-10.298 5.884 0 10.801 4.425 11.435 10.298.062.585-.125 1.173-.52 1.615-.387.445-.955.696-1.546.696zm-9.365-10.518c-4.821 0-8.85 3.625-9.372 8.437l18.737-.004h.003c-.52-4.808-4.547-8.433-9.368-8.433z"/>
    <path fill="#333" d="M62.539 68.503c-3.931 0-7.133-3.218-7.133-7.17 0-3.953 3.202-7.172 7.133-7.172s7.133 3.219 7.133 7.171c0 3.953-3.202 7.171-7.133 7.171zm0-12.254c-2.79 0-5.056 2.279-5.056 5.083 0 2.804 2.267 5.083 5.056 5.083 2.79 0 5.056-2.279 5.056-5.083 0-2.804-2.27-5.083-5.056-5.083z"/>
    <path fill="#333" d="M62.565 64.22c.713 0 1.29-.581 1.29-1.301h-2.578c-.003.72.575 1.301 1.288 1.301zM55.762 62.679s9.012.946 11.833-6.183c0 0-1.488-2.48-5.565-2.008-4.074.47-6.974 4.447-6.268 8.19z"/>
    <path fill="#48D1EE" d="M34.473 77.953H15.74c-.617 0-1.104-.536-1.039-1.152.571-5.268 5.011-9.366 10.403-9.366s9.833 4.098 10.404 9.366c.069.616-.42 1.152-1.035 1.152z"/>
    <path fill="#333" d="M34.47 78.997H15.738c-.591 0-1.155-.254-1.55-.696-.391-.439-.581-1.03-.52-1.615.638-5.87 5.552-10.298 11.435-10.298 5.884 0 10.802 4.425 11.435 10.298.062.585-.125 1.173-.52 1.615-.39.445-.955.696-1.546.696zm-9.368-10.518c-4.82 0-8.849 3.625-9.372 8.437l18.737-.004h.004c-.516-4.808-4.548-8.433-9.369-8.433z"/>
    <path fill="#fff" d="M25.11 67.46c3.366 0 6.095-2.744 6.095-6.128s-2.729-6.127-6.095-6.127c-3.366 0-6.094 2.743-6.094 6.127s2.728 6.127 6.094 6.127z"/>
    <path fill="#333" d="M25.11 68.503c-3.932 0-7.133-3.218-7.133-7.17 0-3.953 3.2-7.172 7.132-7.172 3.932 0 7.133 3.219 7.133 7.171 0 3.953-3.198 7.171-7.133 7.171zm0-12.254c-2.79 0-5.057 2.279-5.057 5.083 0 2.804 2.267 5.083 5.056 5.083 2.79 0 5.056-2.279 5.056-5.083 0-2.804-2.266-5.083-5.056-5.083z"/>
    <path fill="#333" d="M25.139 64.22c.713 0 1.29-.581 1.29-1.301h-2.577c-.004.72.574 1.301 1.287 1.301zM18.333 62.679s9.012.946 11.832-6.183c0 0-1.488-2.48-5.565-2.008-4.073.47-6.973 4.447-6.267 8.19z"/>
    <path fill="#333" fill-rule="evenodd" d="M38.072 25.106h1.963l1.415-2.613 1.391 2.606h9.123s-2.374-7.272-6.04-7.272c-3.664 0-8.097 1.388-7.852 7.279z" clip-rule="evenodd"/>
    <path fill="#333" d="M44.498 40.947c-3.353 0-6.084-2.745-6.084-6.117h2.076c0 2.22 1.797 4.03 4.008 4.03 2.212 0 4.008-1.806 4.008-4.03h2.076c0 3.372-2.727 6.117-6.084 6.117z"/>
    <path fill="#333" d="M51.405 34.804L37.5 44.869l1.213 1.694 13.905-10.065-1.213-1.694zM53.91 37.326l-10.332 7.48 1.213 1.693 10.333-7.479-1.214-1.694zM44.506 29.712c.713 0 1.291-.58 1.291-1.301h-2.578c0 .72.574 1.301 1.287 1.301z"/>
</svg>
